<svg xmlns="http://www.w3.org/2000/svg" version="1.1" xmlns:xlink="http://www.w3.org/1999/xlink" xmlns:svgjs="http://svgjs.com/svgjs" width="1440" height="560" preserveAspectRatio="none" viewBox="0 0 1440 560"><g mask="url(&quot;#SvgjsMask1002&quot;)" fill="none"><rect width="1440" height="560" x="0" y="0" fill="rgba(255, 255, 255, 1)"></rect><path d="M777.06 325.64L807.52 325.64L807.52 356.1L777.06 356.1z" fill="#e73635"></path><path d="M1145.95 486.19a21.07 21.07 0 1 0 41.67 6.28z" fill="#d3b714"></path><path d="M397.95 260.64L404.04 260.64L404.04 266.73L397.95 266.73z" stroke="#e73635"></path><path d="M757.42 341.17a34.85 34.85 0 1 0 21.82 66.19z" stroke="#e73635"></path><path d="M543.79 230.74L599.34 230.74L599.34 286.29L543.79 286.29z" stroke="#037b0b"></path><path d="M1033.03 273.22 a36.36 36.36 0 1 0 72.72 0 a36.36 36.36 0 1 0 -72.72 0z" stroke="#037b0b"></path><path d="M1296.41 73.02 a27.3 27.3 0 1 0 54.6 0 a27.3 27.3 0 1 0 -54.6 0z" fill="#e73635"></path><path d="M287.25 142.14a29.15 29.15 0 1 0 24.51-52.9z" stroke="#e73635"></path><path d="M1270.46 75 a30.37 30.37 0 1 0 60.74 0 a30.37 30.37 0 1 0 -60.74 0z" fill="#d3b714"></path><path d="M1.67 284.44L51.92 284.44L51.92 334.69L1.67 334.69z" fill="#e73635"></path><path d="M1411.8 304.72L1427.76 304.72L1427.76 351.62L1411.8 351.62z" stroke="#d3b714"></path><path d="M599.23 62.2a5.13 5.13 0 1 0-9.94-2.53z" fill="#e73635"></path><path d="M960.71 67.41 a24.85 24.85 0 1 0 49.7 0 a24.85 24.85 0 1 0 -49.7 0z" stroke="#d3b714"></path><path d="M726.59 534.18 a26.55 26.55 0 1 0 53.1 0 a26.55 26.55 0 1 0 -53.1 0z" stroke="#037b0b"></path><path d="M111.35 372.73 a15.1 15.1 0 1 0 30.2 0 a15.1 15.1 0 1 0 -30.2 0z" stroke="#e73635"></path><path d="M520.47 489.65L523.88 489.65L523.88 517.13L520.47 517.13z" stroke="#e73635"></path><path d="M1215.18 224.03L1217.86 224.03L1217.86 225.85L1215.18 225.85z" fill="#d3b714"></path><path d="M52.25 336.27 a36.02 36.02 0 1 0 72.04 0 a36.02 36.02 0 1 0 -72.04 0z" fill="#d3b714"></path><path d="M1117.84 168.72a29.3 29.3 0 1 0-45.42 37.03z" stroke="#e73635"></path><path d="M1110.49 219.28L1161.72 219.28L1161.72 225.84L1110.49 225.84z" stroke="#d3b714"></path><path d="M967.13 382.79 a38.03 38.03 0 1 0 76.06 0 a38.03 38.03 0 1 0 -76.06 0z" fill="#037b0b"></path><path d="M1098.87 224.95a13.22 13.22 0 1 0-20.38 16.84z" fill="#d3b714"></path><path d="M1301.29 66.38L1330.6 66.38L1330.6 120.87L1301.29 120.87z" stroke="#037b0b"></path><path d="M281.71 201.79L308.24 201.79L308.24 228.32L281.71 228.32z" stroke="#e73635"></path><path d="M398.11 258.26L423.33 258.26L423.33 266.33L398.11 266.33z" stroke="#037b0b"></path><path d="M596.75 429.25L641.77 429.25L641.77 459.17L596.75 459.17z" stroke="#037b0b"></path><path d="M226.79 392.79 a12.37 12.37 0 1 0 24.74 0 a12.37 12.37 0 1 0 -24.74 0z" stroke="#037b0b"></path><path d="M188.78 574.71a40.68 40.68 0 1 0-73.28-35.33z" stroke="#037b0b"></path><path d="M1112 243.5a23.97 23.97 0 1 0-43.62 19.88z" fill="#e73635"></path><path d="M74.3 347.56L120.06 347.56L120.06 393.32L74.3 393.32z" stroke="#e73635"></path><path d="M631.13 55.06a27.43 27.43 0 1 0 7.83 54.3z" stroke="#d3b714"></path><path d="M420.96 155.12L467.97 155.12L467.97 202.13L420.96 202.13z" stroke="#037b0b"></path><path d="M-22.04 554.31 a35.73 35.73 0 1 0 71.46 0 a35.73 35.73 0 1 0 -71.46 0z" fill="#037b0b"></path></g><defs><mask id="SvgjsMask1002"><rect width="1440" height="560" fill="#ffffff"></rect></mask></defs></svg>