<svg xmlns="http://www.w3.org/2000/svg" version="1.1" xmlns:xlink="http://www.w3.org/1999/xlink" xmlns:svgjs="http://svgjs.com/svgjs" width="1440" height="560" preserveAspectRatio="none" viewBox="0 0 1440 560"><g mask="url(&quot;#SvgjsMask1019&quot;)" fill="none"><rect width="1440" height="560" x="0" y="0" fill="#0e2a47"></rect><path d="M 0,1 C 57.6,50.6 172.8,232.8 288,249 C 403.2,265.2 460.8,103.6 576,82 C 691.2,60.4 748.8,130.4 864,141 C 979.2,151.6 1036.8,132 1152,135 C 1267.2,138 1382.4,151.8 1440,156L1440 560L0 560z" fill="rgba(201, 51, 205, 1)"></path><path d="M 0,349 C 144,364.2 432,422 720,425 C 1008,428 1296,376.2 1440,364L1440 560L0 560z" fill="rgba(99, 10, 89, 1)"></path></g><defs><mask id="SvgjsMask1019"><rect width="1440" height="560" fill="#ffffff"></rect></mask></defs></svg>